<svg width="41" height="43" viewBox="0 0 41 43" fill="none" xmlns="http://www.w3.org/2000/svg">
<path d="M21.5255 43C9.65626 43 0 33.3391 0 21.464C0 16.0746 1.9971 10.9175 5.62968 6.9429C9.23525 2.99534 14.1416 0.538242 19.4475 0.0252364C22.5457 -0.266318 25.2984 2.0017 25.5953 5.10144C25.8976 8.20113 23.6252 10.9606 20.5216 11.2576C15.2535 11.7653 11.2755 16.1502 11.2755 21.464C11.2755 27.118 15.8743 31.719 21.5255 31.719H29.7245L29.719 24.0291C29.719 20.9132 32.245 18.3859 35.3594 18.3859C38.4739 18.3859 40.9945 20.9132 40.9945 24.0237L41 37.3568C41 38.8527 40.4063 40.2891 39.3483 41.3475C38.2904 42.406 36.8547 43 35.3595 43H21.5255Z" fill="black"/>
</svg>
